<?xml version="1.0" encoding="UTF-8"?>
<svg id="Layer_1" data-name="Layer 1" xmlns="http://www.w3.org/2000/svg" viewBox="0 0 572.6 425.32">
  <defs>
    <style>
      .cls-1 {
        fill: #00172a;
      }

      .cls-2 {
        fill: #fff;
      }

      .cls-3 {
        fill: #8885e7;
      }
    </style>
  </defs>
  <g>
    <rect class="cls-1" y=".13" width="572.6" height="425.2"/>
    <rect class="cls-2" y="347.73" width="572.6" height="77.6"/>
    <rect class="cls-3" x="321.2" y="173.93" width="425.2" height="77.6" transform="translate(746.53 -321.07) rotate(90)"/>
    <rect class="cls-1" y=".13" width="495" height="53.15"/>
    <rect class="cls-1" x="323.97" y=".13" width="171.03" height="53.15"/>
    <g>
      <path class="cls-2" d="m429,81.96h43.76v163.48c0,51.89-16.88,76.58-74.08,76.58s-74.71-24.69-74.71-76.58V81.96h43.76v159.73c0,22.51,1.56,45.02,31.25,45.02s30.01-22.51,30.01-45.02V81.96Z"/>
      <path class="cls-2" d="m0,316.4V81.96h123.67v34.39H43.94v59.08h73.46v34.39H43.94v72.2h79.73v34.39H0Z"/>
      <path class="cls-2" d="m292.54,232.94c-.31,4.37-.62,9.06-.94,13.44-2.18,42.82-16.56,75.64-65.32,75.64-71.9,0-76.59-45.63-76.59-108.15v-33.45c1.88-59.7,6.57-104.09,76.59-104.09,39.07.62,60.95,20.63,64.08,60.64.62,5.94,1.25,11.88.94,17.82h-43.14c-1.88-15-.31-43.14-21.88-43.14-34.39,0-31.57,40.96-31.57,59.08v65.02c0,19.39,1.56,50.96,31.57,50.96,24.07,0,21.25-38.76,22.19-53.76h44.07Z"/>
    </g>
    <g>
      <g>
        <path class="cls-1" d="m12.01,402.49c5.94.19,5.81-2.72,5.81-7.79v-20.91c0-5.07.12-7.97-5.81-7.8v-2.23c3.52.07,6.99.19,10.51.25,7.54-.07,15.15-.19,22.7-.25l.49,10.89h-2.66c-1.05-6.12-4.57-8.04-10.51-8.04-.74,0-4.71,0-5.07.69-.19.31-.19,3.02-.19,3.52v11.44c5.01,0,8.23-.93,8.47-6.68h2.48c-.07,2.85-.19,5.69-.25,8.54.07,2.54.19,5.13.25,7.66h-2.48c-1.17-5.69-2.78-6.68-8.47-6.68v7.23c0,5.81-.19,9.52,7.11,9.52s9.71-2.1,11.26-9.09h2.47c-.07,2.36-.19,4.64-.24,6.99.06,1.67.18,3.28.24,4.95-8.54-.06-17.07-.19-25.6-.24-3.52.06-6.99.19-10.51.24v-2.23Z"/>
        <path class="cls-1" d="m69.58,368.66c0-.37,0-1.23.24-1.48.43-.43,1.98-.55,2.47-.55,4.46,0,8.73,1.17,10.95,5.38,1.92,3.71,2.47,8.72,2.47,12.87,0,7.48-.93,17-10.51,17-2.23,0-4.21-.86-5.01-3.02-.62-1.62-.62-5.94-.62-7.8v-22.39Zm-15.28,36.06c3.34-.06,6.74-.19,10.09-.24,3.28.06,6.56.19,9.83.24,5.75.12,11.75-.8,16.14-4.76,4.26-3.9,6.06-9.03,6.06-14.72,0-6.37-2.1-11.99-6.99-16.27-4.7-4.02-10.32-5.19-16.39-5.19h-18.74v2.23c5.94-.18,5.81,2.72,5.81,7.8v20.91c0,5.06.12,7.97-5.81,7.79v2.23Z"/>
        <path class="cls-1" d="m108.91,373.92c0-5.13.19-8.04-5.81-7.92v-2.23c3.41.07,6.74.19,10.14.25,3.65-.07,7.36-.19,10.95-.25v2.23c-6-.06-5.81,2.85-5.81,7.92v21.03c0,5.07-.07,7.66,5.81,7.54v2.23c-3.59-.06-7.24-.19-10.89-.24-3.4.06-6.8.19-10.21.24v-2.23c6,.19,5.81-2.72,5.81-7.79v-20.79Z"/>
        <path class="cls-1" d="m169.4,375.53h-2.66c-.62-5.19-3.65-8.65-9.04-8.65-1.97,0-2.85-.19-3.4.43-.62.8-.31,2.04-.31,4.08v23.32c0,5.5-.12,7.97,6.19,7.79v2.23c-3.65-.06-7.3-.19-10.95-.24-3.64.06-7.3.19-10.94.24v-2.23c6.3.19,6.25-2.28,6.25-7.79v-23.32c0-2.23-.07-3.47-.38-3.83-.43-.5-1.61-.55-3.33-.68-6.07-.5-8.35,3.28-9.35,8.65h-2.66l.38-11.75h39.82l.38,11.75Z"/>
        <path class="cls-1" d="m189.06,394.71c0,5.06-.12,7.97,5.81,7.79v2.23c-3.64-.06-7.3-.19-10.94-.24-3.4.06-6.74.19-10.14.24v-2.23c5.94.19,5.81-2.72,5.81-7.79v-20.91c0-5.07.12-7.97-5.81-7.8v-2.23c3.34.07,6.74.19,10.08.25,3.65-.07,7.36-.19,11.01-.25v2.23c-5.94-.18-5.81,2.72-5.81,7.8v8.59h18.31v-8.59c0-5.07.07-7.97-5.87-7.8v-2.23c3.28.07,6.49.19,9.77.25,3.78-.07,7.61-.19,11.38-.25v2.23c-5.94-.18-5.81,2.72-5.81,7.8v20.91c0,5.06-.12,7.97,5.81,7.79v2.23c-3.59-.06-7.24-.19-10.83-.24-3.46.06-6.86.19-10.32.24v-2.23c5.94.19,5.87-2.72,5.87-7.79v-9.22h-18.31v9.22Z"/>
      </g>
      <g>
        <g>
          <path class="cls-1" d="m280.54,400.82c-3.59,3.34-8.59,4.58-13.41,4.58-12.25,0-20.84-7.92-20.84-20.35s9.03-21.83,21.64-21.83c4.45,0,8.16,1.12,11.69,3.9l.92-3.52h2.66l.56,12.98h-2.72c-1.3-5.94-5.32-10.27-11.68-10.27-9.59,0-12.37,10.21-12.37,18.06,0,8.47,2.9,17.81,12.74,17.93,7.11.13,10.89-5.32,11.99-11.81h2.48v13.91h-2.48l-1.17-3.59Z"/>
          <path class="cls-1" d="m313.88,366.07c10.27,0,12.44,10.33,12.44,18.62s-2.29,17.87-12.44,17.87-12.12-10.7-12.12-18.62,2.23-17.87,12.12-17.87Zm0,39.34c12.49,0,23.13-7.92,23.13-21.1s-10.45-21.09-22.95-21.09-23,7.85-23,21.09,10.39,21.1,22.81,21.1Z"/>
          <path class="cls-1" d="m366.76,378.75h-.12l-9.16,26.66h-3.02l-11.69-33.9c-1.36-3.77-1.42-4.82-5.69-5.5v-2.23c3.1.07,6.25.19,9.35.25,3.64-.07,7.23-.19,10.88-.25v2.23c-2.04.38-5.25.13-5.25,3.03,0,1.55,1.3,5.32,1.79,6.87l5.19,16.45h.12l8.85-28.57h2.78l9.65,28.14h.12l3.16-10.27c.81-2.59,2.78-9.09,2.78-11.44,0-3.47-2.28-3.78-5.01-4.21v-2.23c2.1.07,4.21.19,6.3.25,2.41-.07,4.76-.19,7.18-.25v2.23c-3.15.38-3.89,1.92-4.82,4.83l-11.38,34.57h-2.97l-9.03-26.66Z"/>
        </g>
        <g>
          <path class="cls-1" d="m404.82,389.01l5.81-14.23,5.44,14.23h-11.25Zm-1.17,3.09h13.67l1.3,3.52c.38.93,1.17,3.09,1.17,4.09,0,2.66-3.28,2.54-5.13,2.78v2.23c3.21-.06,6.49-.19,9.71-.24,3.71.06,7.42.19,11.13.24v-2.23c-1.48-.19-3.09-.5-4.21-1.48-1.24-1.24-2.47-4.33-3.16-6l-12.74-31.78h-2.97l-12.25,29.44c-1.61,3.83-3.4,9.78-8.47,9.83v2.23c2.35-.06,4.71-.19,7.05-.24,2.59.06,5.19.19,7.79.24v-2.23c-2.28-.19-5.13-.37-5.13-3.4,0-1.67.93-3.64,1.48-5.19l.74-1.79Z"/>
          <path class="cls-1" d="m447.43,373.61v19.11c0,4.7,0,9.52,5.94,9.77v2.23c-2.48-.06-5.02-.19-7.49-.24-2.35.06-4.7.19-7.05.24v-2.23c5.14-.5,5.5-3.03,5.5-7.42v-24.86c-1.97-2.78-2.78-3.9-6.18-4.21v-2.23c1.98.07,3.9.19,5.87.25,2.36-.07,4.64-.19,6.99-.25l24.43,28.14v-16.45c0-4.71,0-9.21-5.87-9.47v-2.23c2.35.07,4.7.19,7.04.25,2.48-.07,4.95-.19,7.43-.25v2.23c-1.74.31-3.72.56-4.58,2.23-.92,1.79-.92,5.57-.92,7.61v29.75h-3.03l-28.07-31.97Z"/>
        </g>
      </g>
    </g>
    <g>
      <path class="cls-1" d="m512.19,383.71v-8.08h30.18c9.58,0,14.14,3.12,14.14,13.68s-4.56,13.79-14.14,13.79h-30.18v-8.08h29.49c4.16,0,8.31-.29,8.31-5.77s-4.15-5.54-8.31-5.54h-29.49Z"/>
      <path class="cls-1" d="m512.19,338.13v-8.08h43.28v8.43l-15.41,6.29c-5.14,2.14-10.39,3.86-17.2,5.77v.12c3.58-.29,7.96-.64,12.35-.87,4.33-.23,8.66-.4,12.12-.4h8.14v8.08h-43.28v-8.37l15.75-6.29c5.02-2.08,10.16-3.81,17.2-5.77v-.12c-3.92.29-8.14.58-12.29.81-4.15.23-8.31.4-12.18.4h-8.48Z"/>
      <path class="cls-1" d="m555.48,311.76h-43.28v-8.08h43.28v8.08Z"/>
      <path class="cls-1" d="m512.19,267.03v-8.66l43.28,9.35v10.79l-43.28,9.58v-8.66l27.76-5.08c2.42-.46,4.91-.75,7.39-.98,1.15-.11,2.36-.34,3.58-.34v-.12c-1.21,0-2.42-.23-3.58-.35-2.48-.23-4.96-.52-7.39-.98l-27.76-4.56Z"/>
      <path class="cls-1" d="m555.48,243.14h-43.28v-22.74h6.35v14.66h10.91v-13.5h6.35v13.5h13.33v-14.66h6.35v22.74Z"/>
      <path class="cls-1" d="m520.05,195.7v-6c.06-3.06.87-5.08,5.71-5.08,4.33,0,6.06,2.08,6.23,4.73v6.35h-11.95Zm16.79-1.44c0-2.31-.06-4.67.58-6.87.81-2.77,4.44-2.71,7.1-2.77,2.88-.06,8.19.12,10.96-.86v-8.89h-.81c-1.27,1.96-11.89,1.73-13.68,1.73-4.15,0-7.21,1.44-7.85,6.23h-.11c-.75-5.42-5.71-6.64-10.44-6.64-7.96,0-10.39,5.31-10.39,12.29v15.29h43.28v-8.08h-18.64v-1.44Z"/>
      <path class="cls-1" d="m525.35,141.51c-3.86-.06-7.67.29-7.67,4.73,0,2.71,1.1,4.44,4.04,4.44,3.29,0,4.56-2.08,6.18-4.62,1.67-2.65,4.91-7.56,7.1-9.81,2.71-2.77,5.31-3.63,9.06-3.63,8.2,0,12.46,5.42,12.46,13.33,0,9.7-5.42,13.16-13.16,13.16h-3.17v-8.08h2.54c4.21.17,7.27-1.1,7.27-5.08,0-3.41-1.79-5.02-5.08-5.02-2.54,0-4.27,1.16-5.71,3.23-3.29,4.21-5.66,9.47-9.98,12.75-1.96,1.33-4.33,2.08-6.64,2.08-7.39,0-11.43-4.15-11.43-12.7,0-12.87,9.93-12.52,14.19-12.58v7.79Z"/>
      <path class="cls-1" d="m555.48,115.49h-43.28v-8.08h43.28v8.08Z"/>
      <path class="cls-1" d="m512.19,92.06v-26.95h6.35v9.41h36.93v8.08h-36.93v9.47h-6.35Z"/>
      <path class="cls-1" d="m523.56,39.72c2.14-.86,4.33-1.56,6.64-1.9v-.12c-3.35-.58-5.77-1.67-8.2-2.65l-9.81-3.87v-8.83l24.87,11.43h18.41v8.08h-18.41l-24.87,11.25v-8.83l11.37-4.56Z"/>
    </g>
    <g>
      <path class="cls-2" d="m21.55,42.79l8.66-31.25h8.61l8.48,31.25h-6.88l-1.73-6.92h-8.92l-1.78,6.92h-6.45Zm12.6-25.23h-.09l-2.99,13.5h6.23l-3.16-13.5Z"/>
      <path class="cls-2" d="m80.03,11.54v22.16c0,4.67-2.64,9.61-10.6,9.61-7.19,0-10.65-3.72-10.65-9.61V11.54h6.53v21.73c0,3.85,1.65,5.37,4.02,5.37,2.86,0,4.16-1.9,4.16-5.37V11.54h6.53Z"/>
      <path class="cls-2" d="m102.36,43.31c-8.09,0-9.61-4.76-9.26-10.17h6.54c0,2.98.13,5.49,3.72,5.49,2.21,0,3.29-1.43,3.29-3.55,0-5.63-13.16-5.97-13.16-15.28,0-4.89,2.34-8.79,10.3-8.79,6.36,0,9.52,2.86,9.09,9.39h-6.36c0-2.34-.39-4.72-3.03-4.72-2.12,0-3.38,1.17-3.38,3.33,0,5.93,13.16,5.41,13.16,15.23,0,8.09-5.93,9.05-10.91,9.05Z"/>
      <path class="cls-2" d="m145.08,11.54v5.19h-7.27v26.06h-6.53v-26.06h-7.27v-5.19h21.08Z"/>
      <path class="cls-2" d="m163.04,42.79h-6.53V11.54h12.07c4.46,0,7.32,2.86,7.32,8.18,0,3.98-1.56,6.97-5.8,7.66v.09c1.43.17,5.67.52,5.67,6.14,0,1.99.13,7.88.74,9.18h-6.41c-.87-1.9-.69-4.02-.69-6.06,0-3.72.35-6.88-4.68-6.88h-1.69v12.94Zm0-17.75h2.9c2.6,0,3.33-2.6,3.33-4.59,0-2.99-1.25-4.11-3.33-4.11h-2.9v8.7Z"/>
      <path class="cls-2" d="m186.84,42.79l8.66-31.25h8.61l8.48,31.25h-6.88l-1.73-6.92h-8.92l-1.77,6.92h-6.45Zm12.6-25.23h-.09l-2.99,13.5h6.23l-3.16-13.5Z"/>
      <path class="cls-2" d="m224.24,42.79V11.54h6.53v26.06h9.78v5.19h-16.32Z"/>
      <path class="cls-2" d="m251.94,42.79V11.54h6.53v31.25h-6.53Z"/>
      <path class="cls-2" d="m270.11,42.79l8.66-31.25h8.61l8.48,31.25h-6.88l-1.73-6.92h-8.92l-1.78,6.92h-6.45Zm12.6-25.23h-.09l-2.99,13.5h6.23l-3.16-13.5Z"/>
    </g>
  </g>
  <rect class="cls-2" x="494.13" width="2" height="425.2"/>
  <rect class="cls-2" x="322.97" y=".13" width="2" height="53.15"/>
  <rect class="cls-2" x="0" y="52.11" width="495.35" height="2"/>
</svg>